<svg xmlns="http://www.w3.org/2000/svg" id="Layer" enable-background="new 0 0 64 56" height="24px" viewBox="0 0 64 56" width="24px">
 <g>
  <g id="svg_1">
   <path id="svg_2" fill="#a3a8ae" class="active-path" d="m12,35l6,0c2.206,0 4,-1.794 4,-4l0,-6c0,-0.173 -0.021,-0.34 -0.063,-0.5c0.042,-0.16 0.063,-0.327 0.063,-0.5l0,-5c0,-2.757 -2.243,-5 -5,-5l-4,0c-1.334,0 -2.589,0.521 -3.534,1.466c-0.781,0.781 -0.781,2.047 0,2.828s2.047,0.781 2.828,0c0.11,-0.11 0.348,-0.294 0.706,-0.294l4,0c0.552,0 1,0.449 1,1l0,3l-4,0c-3.309,0 -6,2.691 -6,6l0,3c0,2.206 1.794,4 4,4zm0,-7c0,-1.103 0.897,-2 2,-2l4,0l0,5l-6,0l0,-3z"/>
   <path id="svg_3" fill="#a3a8ae" class="active-path" d="m34,20l-5,0l0,-8c0,-1.104 -0.896,-2 -2,-2s-2,0.896 -2,2l0,21c0,1.104 0.896,2 2,2l7,0c2.757,0 5,-2.243 5,-5l0,-5c0,-2.757 -2.243,-5 -5,-5zm1,10c0,0.551 -0.448,1 -1,1l-5,0l0,-7l5,0c0.552,0 1,0.449 1,1l0,5z"/>
   <path id="svg_4" fill="#a3a8ae" class="active-path" d="m54,31l-5,0c-1.654,0 -3,-1.346 -3,-3l0,-3c0,-1.654 1.346,-3 3,-3l5,0c1.104,0 2,-0.896 2,-2s-0.896,-2 -2,-2l-5,0c-3.859,0 -7,3.14 -7,7l0,3c0,3.86 3.141,7 7,7l5,0c1.104,0 2,-0.896 2,-2s-0.896,-2 -2,-2z"/>
  </g>
 </g>
</svg>
