<svg xmlns="http://www.w3.org/2000/svg" id="Layer" enable-background="new 0 0 64 56" height="12px" viewBox="0 0 64 56" width="12px">
 <g>
  <g stroke="null" id="svg_10">
   <path stroke="null" id="svg_3" fill="#f44336" d="m62.508561,45.050942l-23.885709,-38.809753c-1.361666,-2.307142 -3.894999,-3.74119 -6.622856,-3.74119s-5.261189,1.434047 -6.586665,3.686904l-23.849518,38.74642c-0.805238,1.198809 -1.230476,2.628333 -1.230476,4.139285c0,4.25238 3.474285,7.713093 7.74476,7.713093l47.843798,0c4.270475,0 7.74476,-3.460713 7.74476,-7.713093c0,-1.510952 -0.425238,-2.940476 -1.158095,-4.021666z"/>
   <path stroke="null" id="svg_4" fill="#fff" d="m31.999996,49.999988c-2.501666,0 -4.523808,-2.026666 -4.523808,-4.523808s2.022142,-4.523808 4.523808,-4.523808s4.523808,2.026666 4.523808,4.523808s-2.022142,4.523808 -4.523808,4.523808z"/>
   <path stroke="null" id="svg_5" fill="#fff" d="m36.523805,31.904754c0,2.497142 -2.022142,4.523808 -4.523808,4.523808s-4.523808,-2.026666 -4.523808,-4.523808l0,-13.571425c0,-2.497142 2.022142,-4.523808 4.523808,-4.523808s4.523808,2.026666 4.523808,4.523808l0,13.571425z"/>
  </g>
 </g>
</svg>
