<svg xmlns="http://www.w3.org/2000/svg" id="Layer" enable-background="new 0 0 64 56" height="12px" viewBox="0 0 64 56" width="12px">
 <g>
  <g stroke="null" id="svg_4">
   <path fill="#ff7f00" stroke="null" id="svg_1" d="m39.999999,39.75c0,4.418457 -3.581543,8 -8,8s-8,-3.581543 -8,-8s3.581543,-8 8,-8s8,3.581543 8,8zm0,0"/>
   <path fill="#ff7f00" stroke="null" id="svg_2" d="m16,39.75c0,4.418457 -3.581543,8 -8,8s-8,-3.581543 -8,-8s3.581543,-8 8,-8s8,3.581543 8,8zm0,0"/>
   <path fill="#ff7f00" stroke="null" id="svg_3" d="m63.999999,39.75c0,4.418457 -3.581543,8 -8,8s-8,-3.581543 -8,-8s3.581543,-8 8,-8s8,3.581543 8,8zm0,0"/>
  </g>
 </g>
</svg>
